HIERARCHY
ROOT Hips
{
  OFFSET 365.14 88.179 197.519
  CHANNELS 6 Xposition Yposition Zposition Zrotation Xrotation Yrotation
  JOINT RightUpLeg
  {
    OFFSET -9.25084 -1.53971 -0.0324706
    CHANNELS 3 Zrotation Xrotation Yrotation
    JOINT RightLeg
    {
      OFFSET 0.0147984 -41.8767 0.0743683
      CHANNELS 3 Zrotation Xrotation Yrotation
      JOINT RightFoot
      {
        OFFSET 0.58129 -42.7665 -0.0966173
        CHANNELS 3 Zrotation Xrotation Yrotation
        End Site
        {
          OFFSET 0 -7.69 17.5
        }
      }
    }
  }
  JOINT LeftUpLeg
  {
    OFFSET 9.27183 -1.63567 0.0208533
    CHANNELS 3 Zrotation Xrotation Yrotation
    JOINT LeftLeg
    {
      OFFSET 0.0380064 -41.894 -0.0332375
      CHANNELS 3 Zrotation Xrotation Yrotation
      JOINT LeftFoot
      {
        OFFSET -0.00137207 -40.7578 0.276477
        CHANNELS 3 Zrotation Xrotation Yrotation
        End Site
        {
          OFFSET 0 -7.69 17.5
        }
      }
    }
  }
  JOINT Spine
  {
    OFFSET 0.0273715 14.2953 0.0132618
    CHANNELS 3 Zrotation Xrotation Yrotation
    JOINT Spine1
    {
      OFFSET 0.0356242 9.71545 0.0178671
      CHANNELS 3 Zrotation Xrotation Yrotation
      JOINT Spine2
      {
        OFFSET 0.0275401 10.1205 0.00234803
        CHANNELS 3 Zrotation Xrotation Yrotation
        JOINT Spine3
        {
          OFFSET 0.0388833 9.71499 0.00573168
          CHANNELS 3 Zrotation Xrotation Yrotation
          JOINT Neck
          {
            OFFSET 0.0812761 10.3796 0.11061
            CHANNELS 3 Zrotation Xrotation Yrotation
            JOINT Head
            {
              OFFSET 0.0694951 9.4737 0.0873993
              CHANNELS 3 Zrotation Xrotation Yrotation
              End Site
              {
                OFFSET 0 15.95 0
              }
            }
          }
          JOINT RightShoulder
          {
            OFFSET -3.16911 6.92878 0.0176909
            CHANNELS 3 Zrotation Xrotation Yrotation
            JOINT RightArm
            {
              OFFSET -12.7939 0.0472484 0.0511932
              CHANNELS 3 Zrotation Xrotation Yrotation
              JOINT RightForeArm
              {
                OFFSET -26.5086 -0.00989181 0.0576382
                CHANNELS 3 Zrotation Xrotation Yrotation
                JOINT RightHand
                {
                  OFFSET -26.0357 0.339815 -0.212656
                  CHANNELS 3 Zrotation Xrotation Yrotation
                  JOINT RightHandThumb1
                  {
                    OFFSET -2.48905 0.190105 3.12053
                    CHANNELS 3 Zrotation Xrotation Yrotation
                    JOINT RightHandThumb2
                    {
                      OFFSET -3.68274 0 0
                      CHANNELS 3 Zrotation Xrotation Yrotation
                      JOINT RightHandThumb3
                      {
                        OFFSET -2.55832 0 0
                        CHANNELS 3 Zrotation Xrotation Yrotation
                        End Site
                        {
                          OFFSET -2.194 0 0
                        }
                      }
                    }
                  }
                  JOINT RightInHandIndex
                  {
                    OFFSET -3.22368 0.508421 1.97842
                    CHANNELS 3 Zrotation Xrotation Yrotation
                    JOINT RightHandIndex1
                    {
                      OFFSET -5.21684 -0.091368 0.999158
                      CHANNELS 3 Zrotation Xrotation Yrotation
                      JOINT RightHandIndex2
                      {
                        OFFSET -3.61937 0 0
                        CHANNELS 3 Zrotation Xrotation Yrotation
                        JOINT RightHandIndex3
                        {
                          OFFSET -2.0521 0 0
                          CHANNELS 3 Zrotation Xrotation Yrotation
                          End Site
                          {
                            OFFSET -1.805 0 0
                          }
                        }
                      }
                    }
                  }
                  JOINT RightInHandMiddle
                  {
                    OFFSET -3.38211 0.517263 0.756737
                    CHANNELS 3 Zrotation Xrotation Yrotation
                    JOINT RightHandMiddle1
                    {
                      OFFSET -5.17411 -0.084 0.313895
                      CHANNELS 3 Zrotation Xrotation Yrotation
                      JOINT RightHandMiddle2
                      {
                        OFFSET -3.94947 0 0
                        CHANNELS 3 Zrotation Xrotation Yrotation
                        JOINT RightHandMiddle3
                        {
                          OFFSET -2.47579 0 0
                          CHANNELS 3 Zrotation Xrotation Yrotation
                          End Site
                          {
                            OFFSET -1.975 0 0
                          }
                        }
                      }
                    }
                  }
                  JOINT RightInHandRing
                  {
                    OFFSET -3.36516 0.537895 -0.128947
                    CHANNELS 3 Zrotation Xrotation Yrotation
                    JOINT RightHandRing1
                    {
                      OFFSET -4.63474 -0.022105 -0.478947
                      CHANNELS 3 Zrotation Xrotation Yrotation
                      JOINT RightHandRing2
                      {
                        OFFSET -3.44238 0 0
                        CHANNELS 3 Zrotation Xrotation Yrotation
                        JOINT RightHandRing3
                        {
                          OFFSET -2.3881 0 0
                          CHANNELS 3 Zrotation Xrotation Yrotation
                          End Site
                          {
                            OFFSET -1.857 0 0
                          }
                        }
                      }
                    }
                  }
                  JOINT RightInHandPinky
                  {
                    OFFSET -3.16105 0.469368 -1.20179
                    CHANNELS 3 Zrotation Xrotation Yrotation
                    JOINT RightHandPinky1
                    {
                      OFFSET -4.14105 -0.022105 -1.09053
                      CHANNELS 3 Zrotation Xrotation Yrotation
                      JOINT RightHandPinky2
                      {
                        OFFSET -2.75653 0 0
                        CHANNELS 3 Zrotation Xrotation Yrotation
                        JOINT RightHandPinky3
                        {
                          OFFSET -1.74189 0 0
                          CHANNELS 3 Zrotation Xrotation Yrotation
                          End Site
                          {
                            OFFSET -1.645 0 0
                          }
                        }
                      }
                    }
                  }
                }
              }
            }
          }
          JOINT LeftShoulder
          {
            OFFSET 3.24184 6.89832 -0.0228965
            CHANNELS 3 Zrotation Xrotation Yrotation
            JOINT LeftArm
            {
              OFFSET 12.8376 -0.0155948 -0.0448787
              CHANNELS 3 Zrotation Xrotation Yrotation
              JOINT LeftForeArm
              {
                OFFSET 26.5019 -0.0237061 -0.00609661
                CHANNELS 3 Zrotation Xrotation Yrotation
                JOINT LeftHand
                {
                  OFFSET 25.9931 -0.0767526 0.00928659
                  CHANNELS 3 Zrotation Xrotation Yrotation
                  JOINT LeftHandThumb1
                  {
                    OFFSET 2.48905 0.190105 3.12053
                    CHANNELS 3 Zrotation Xrotation Yrotation
                    JOINT LeftHandThumb2
                    {
                      OFFSET 3.68274 0 0
                      CHANNELS 3 Zrotation Xrotation Yrotation
                      JOINT LeftHandThumb3
                      {
                        OFFSET 2.55832 0 0
                        CHANNELS 3 Zrotation Xrotation Yrotation
                        End Site
                        {
                          OFFSET 2.194 0 0
                        }
                      }
                    }
                  }
                  JOINT LeftInHandIndex
                  {
                    OFFSET 3.22368 0.508421 1.97842
                    CHANNELS 3 Zrotation Xrotation Yrotation
                    JOINT LeftHandIndex1
                    {
                      OFFSET 5.21684 -0.091368 0.999158
                      CHANNELS 3 Zrotation Xrotation Yrotation
                      JOINT LeftHandIndex2
                      {
                        OFFSET 3.61937 0 0
                        CHANNELS 3 Zrotation Xrotation Yrotation
                        JOINT LeftHandIndex3
                        {
                          OFFSET 2.0521 0 0
                          CHANNELS 3 Zrotation Xrotation Yrotation
                          End Site
                          {
                            OFFSET 1.805 0 0
                          }
                        }
                      }
                    }
                  }
                  JOINT LeftInHandMiddle
                  {
                    OFFSET 3.38211 0.517263 0.756737
                    CHANNELS 3 Zrotation Xrotation Yrotation
                    JOINT LeftHandMiddle1
                    {
                      OFFSET 5.17411 -0.084 0.313895
                      CHANNELS 3 Zrotation Xrotation Yrotation
                      JOINT LeftHandMiddle2
                      {
                        OFFSET 3.94947 0 0
                        CHANNELS 3 Zrotation Xrotation Yrotation
                        JOINT LeftHandMiddle3
                        {
                          OFFSET 2.47579 0 0
                          CHANNELS 3 Zrotation Xrotation Yrotation
                          End Site
                          {
                            OFFSET 1.975 0 0
                          }
                        }
                      }
                    }
                  }
                  JOINT LeftInHandRing
                  {
                    OFFSET 3.36516 0.537895 -0.128947
                    CHANNELS 3 Zrotation Xrotation Yrotation
                    JOINT LeftHandRing1
                    {
                      OFFSET 4.63474 -0.022105 -0.478947
                      CHANNELS 3 Zrotation Xrotation Yrotation
                      JOINT LeftHandRing2
                      {
                        OFFSET 3.44238 0 0
                        CHANNELS 3 Zrotation Xrotation Yrotation
                        JOINT LeftHandRing3
                        {
                          OFFSET 2.3881 0 0
                          CHANNELS 3 Zrotation Xrotation Yrotation
                          End Site
                          {
                            OFFSET 1.857 0 0
                          }
                        }
                      }
                    }
                  }
                  JOINT LeftInHandPinky
                  {
                    OFFSET 3.16105 0.469368 -1.20179
                    CHANNELS 3 Zrotation Xrotation Yrotation
                    JOINT LeftHandPinky1
                    {
                      OFFSET 4.14105 -0.022105 -1.09053
                      CHANNELS 3 Zrotation Xrotation Yrotation
                      JOINT LeftHandPinky2
                      {
                        OFFSET 2.75653 0 0
                        CHANNELS 3 Zrotation Xrotation Yrotation
                        JOINT LeftHandPinky3
                        {
                          OFFSET 1.74189 0 0
                          CHANNELS 3 Zrotation Xrotation Yrotation
                          End Site
                          {
                            OFFSET 1.645 0 0
                          }
                        }
                      }
                    }
                  }
                }
              }
            }
          }
        }
      }
    }
  }
}
MOTION
Frames:	7
Frame Time:	0.00833333
359.772 87.7986 213.526 15.3756 -0.301438 -116.236 7.72597 -41.7947 16.5055 -2.88 4.40729 -3.94322 17.457 20.2725 40.7833 17.8983 -20.6836 14.3374 -16.8933 35.0872 25.7271 -2.7677 -24.524 1.19086 3.88198 8.99907 3.94532 1.02168 2.02259 1.16662 1.67864 3.17418 2.00418 -1.29873 -0.441044 1.51783 -2.16106 -1.63663 3.90276 -24.1387 -4.41012 27.7107 4.04712 -1.33218 5.4521 90.6732 -44.0664 49.7107 78.6258 -3.34084 77.8723 22.8128 -4.63653 21.4719 28.184 10.7294 19.1592 1.50941e-14 3.18055e-15 -10 -1.72697e-14 -6.36111e-15 -10 -6.36111e-15 0 3.18055e-15 19.9818 0.871897 2.3964 24 6.36111e-15 -1.21756e-15 20 -3.18055e-15 -1.27222e-14 -6.36111e-15 0 3.18055e-15 20 1.27222e-14 9.54166e-15 24 9.54166e-15 -3.37934e-15 20 -6.36111e-15 -1.43125e-14 -6.36111e-15 0 3.18055e-15 19.9748 -1.02565 -2.81938 24 -6.36111e-15 -1.09332e-14 20 3.18055e-15 -2.38542e-14 -6.36111e-15 0 3.18055e-15 19.7815 -3.00948 -8.30515 24 1.90833e-14 -3.18055e-15 20 1.27222e-14 -0 4.78237 -19.5278 -55.988 -8.46578 26.9191 -100.618 25.9082 5.73446 -5.0007 -20.7772 -13.7854 -2.84999 -28.184 10.7294 -19.1592 6.45924e-15 0 10 -2.31682e-14 3.18055e-15 10 -0 -4.77083e-15 -0 -19.9818 0.871897 -2.3964 -24 3.77691e-15 1.94809e-14 -20 1.19271e-15 6.90156e-15 -0 -4.77083e-15 -0 -20 -3.57812e-15 1.47101e-14 -24 -3.97569e-15 1.17283e-14 -20 -1.59028e-15 2.71838e-14 -0 -4.77083e-15 -0 -19.9748 -1.02565 2.81938 -24 -5.56597e-15 5.1684e-15 -20 4.77083e-15 7.47927e-15 -0 -4.77083e-15 -0 -19.7815 -3.00948 8.30515 -24 -4.77083e-15 1.98785e-15 -20 1.59028e-15 3.03147e-15 
359.61 87.7971 213.4 15.39 -0.217096 -116.596 8.13239 -41.6693 16.8906 -2.96443 4.46258 -3.88278 17.6577 20.167 40.7495 18.1046 -20.556 14.7093 -16.8815 35.3211 25.5523 -2.74072 -24.6979 1.38361 3.98114 8.76827 3.60067 1.04048 1.98349 1.07738 1.71088 3.12349 1.8555 -1.29819 -0.456565 1.55876 -2.32731 -1.94142 4.53876 -24.0205 -4.1371 28.1837 4.12871 -1.29849 5.18596 90.6116 -44.8461 50.1343 78.2243 -2.56352 77.9733 22.4871 -4.24215 21.6448 28.184 10.7294 19.1592 1.86041e-14 4.77083e-15 -10 -1.99385e-14 -3.18055e-15 -10 -6.36111e-15 -3.18055e-15 3.18055e-15 19.9818 0.871897 2.3964 24 6.36111e-15 -6.4605e-15 20 -6.36111e-15 -2.70347e-14 -6.36111e-15 -3.18055e-15 3.18055e-15 20 6.36111e-15 1.59028e-14 24 3.18055e-15 -7.15625e-15 20 0 -1.90833e-14 -6.36111e-15 -3.18055e-15 3.18055e-15 19.9748 -1.02565 -2.81938 24 0 -2.10712e-14 20 0 -3.18055e-14 -6.36111e-15 -3.18055e-15 3.18055e-15 19.7815 -3.00948 -8.30515 24 6.36111e-15 -1.03368e-14 20 -3.18055e-15 -7.95139e-15 4.7229 -19.7377 -56.3056 -9.57911 27.3241 -99.1965 26.8064 5.73509 -7.10686 -20.6908 -13.4393 -3.4178 -28.184 10.7294 -19.1592 5.3376e-15 6.36111e-15 10 -1.40401e-14 6.36111e-15 10 1.48969e-31 -3.57812e-15 2.38542e-15 -19.9818 0.871897 -2.3964 -24 6.36111e-15 6.70898e-15 -20 4.57205e-15 -1.32937e-15 1.48969e-31 -3.57812e-15 2.38542e-15 -20 -3.97569e-16 1.31198e-14 -24 -7.7526e-15 4.32357e-15 -20 -2.38542e-15 1.26694e-14 1.48969e-31 -3.57812e-15 2.38542e-15 -19.9748 -1.02565 2.81938 -24 -1.59028e-15 -1.13307e-14 -20 2.38542e-15 6.63444e-15 1.48969e-31 -3.57812e-15 2.38542e-15 -19.7815 -3.00948 8.30515 -24 0 -1.63003e-14 -20 3.18055e-15 -5.71506e-15 
359.438 87.796 213.282 15.3604 -0.252788 -116.97 8.42906 -41.5411 17.3291 -3.03293 4.51683 -3.83386 17.83 20.0351 40.7072 18.1931 -20.4106 15.0493 -16.8911 35.4989 25.4413 -2.74703 -24.8382 1.5461 3.99681 8.52639 3.27047 1.04223 1.94261 0.988323 1.70955 3.07071 1.70591 -1.29757 -0.472046 1.59935 -2.48701 -2.25465 5.20772 -23.893 -3.84425 28.6294 4.1978 -1.26704 4.92202 90.549 -45.5737 50.5266 75.7806 -2.53952 80.4204 21.7449 -6.2514 20.6404 28.184 10.7294 19.1592 2.18338e-14 4.77083e-15 -10 -2.02189e-14 -4.77083e-15 -10 -3.18055e-15 0 1.59028e-15 19.9818 0.871897 2.3964 24 -6.36111e-15 -1.55052e-14 20 -6.36111e-15 -3.02153e-14 -3.18055e-15 0 1.59028e-15 20 0 3.97569e-15 24 -3.18055e-15 -2.34566e-14 20 0 -2.70347e-14 -3.18055e-15 0 1.59028e-15 19.9748 -1.02565 -2.81938 24 -3.18055e-15 -2.16675e-14 20 -3.18055e-15 -3.65764e-14 -3.18055e-15 0 1.59028e-15 19.7815 -3.00948 -8.30515 24 6.36111e-15 -1.03368e-14 20 0 -1.11319e-14 4.66213 -19.9367 -56.6098 -10.5512 27.6211 -98.0331 27.612 5.67627 -8.96181 -20.6558 -13.1421 -3.99421 -28.184 10.7294 -19.1592 1.46009e-14 -9.54166e-15 10 -6.73965e-15 1.59028e-15 10 3.66906e-31 -5.56597e-15 3.77691e-15 -19.9818 0.871897 -2.3964 -24 6.36111e-15 8.15017e-15 -20 7.95139e-16 2.82647e-15 3.66906e-31 -5.56597e-15 3.77691e-15 -20 -1.78906e-15 1.45113e-14 -24 -1.25234e-14 1.68967e-14 -20 -1.78906e-15 2.05245e-14 3.66906e-31 -5.56597e-15 3.77691e-15 -19.9748 -1.02565 2.81938 -24 -9.14409e-15 3.72721e-15 -20 3.37934e-15 7.55382e-15 3.66906e-31 -5.56597e-15 3.77691e-15 -19.7815 -3.00948 8.30515 -24 -7.95139e-16 7.15625e-15 -20 2.38542e-15 9.39258e-15 
359.236 87.7955 213.148 15.3633 -0.203252 -117.3 8.77348 -41.3878 17.7094 -3.09691 4.55706 -3.77055 17.9791 19.8924 40.6615 18.3732 -20.1123 15.0585 -17.1072 35.4427 25.6492 -2.79329 -24.9787 1.66076 4.0576 8.27709 2.92179 1.04842 1.9 0.896181 1.72661 3.01507 1.55158 -1.29697 -0.484599 1.63954 -2.62758 -2.55575 5.8818 -23.7299 -3.52246 29.0598 4.29082 -1.22634 4.65305 90.4905 -46.2793 50.9557 61.1453 4.7676 93.1022 15.51 -23.948 12.969 28.184 10.7294 19.1592 1.33391e-14 2.38542e-15 -10 -1.05301e-14 -4.77083e-15 -10 6.36111e-15 -3.18055e-15 -1.59028e-15 19.9818 0.871897 2.3964 24 6.36111e-15 4.37326e-15 20 0 -9.54166e-15 6.36111e-15 -3.18055e-15 -1.59028e-15 20 9.54166e-15 1.74931e-14 24 0 6.75868e-15 20 9.54166e-15 4.77083e-15 6.36111e-15 -3.18055e-15 -1.59028e-15 19.9748 -1.02565 -2.81938 24 3.18055e-15 6.36111e-15 20 0 -1.43125e-14 6.36111e-15 -3.18055e-15 -1.59028e-15 19.7815 -3.00948 -8.30515 24 9.54166e-15 5.56597e-15 20 -3.18055e-15 9.54166e-15 4.52194 -20.0988 -56.9579 -10.6695 27.4346 -98.3273 27.8577 5.41809 -9.4701 -20.6554 -12.8384 -4.54621 -28.184 10.7294 -19.1592 2.04994e-14 -6.36111e-15 10 -1.64285e-14 1.59028e-15 10 -3.18055e-15 -5.56597e-15 2.38542e-15 -19.9818 0.871897 -2.3964 -24 7.95139e-15 -3.97569e-16 -20 9.54166e-15 -2.17421e-15 -3.18055e-15 -5.56597e-15 2.38542e-15 -20 4.37326e-15 -5.1684e-15 -24 -8.74653e-15 -5.36719e-15 -20 -1.59028e-15 1.59897e-14 -3.18055e-15 -5.56597e-15 2.38542e-15 -19.9748 -1.02565 2.81938 -24 7.7526e-15 -1.98785e-14 -20 3.97569e-15 -8.51979e-15 -3.18055e-15 -5.56597e-15 2.38542e-15 -19.7815 -3.00948 8.30515 -24 3.97569e-16 -4.96962e-15 -20 5.56597e-15 -7.78366e-15 
359.039 87.7996 212.997 15.3711 -0.141605 -117.643 9.13301 -41.2117 18.1067 -3.14862 4.58608 -3.68893 18.1278 19.7278 40.5953 18.5718 -19.7381 15.0666 -17.3577 35.3016 25.8598 -2.83017 -25.1291 1.75278 4.12365 8.01711 2.55921 1.05903 1.85528 0.800427 1.74557 2.95637 1.39109 -1.29637 -0.49492 1.6808 -2.7625 -2.86772 6.60725 -23.5582 -3.14592 29.479 4.39746 -1.17535 4.42599 90.3952 -46.9873 51.3895 61.2807 4.12053 92.9512 16.0304 -22.5423 13.7352 28.184 10.7294 19.1592 1.43931e-14 -7.95139e-16 -10 -1.54083e-14 -9.54166e-15 -10 9.54166e-15 -1.59028e-15 1.59028e-15 19.9818 0.871897 2.3964 24 6.36111e-15 -1.39149e-14 20 -1.27222e-14 -2.54444e-14 9.54166e-15 -1.59028e-15 1.59028e-15 20 3.18055e-15 2.38542e-15 24 3.18055e-15 -1.98785e-14 20 3.18055e-15 -1.74931e-14 9.54166e-15 -1.59028e-15 1.59028e-15 19.9748 -1.02565 -2.81938 24 3.18055e-15 -1.03368e-14 20 3.18055e-15 -2.70347e-14 9.54166e-15 -1.59028e-15 1.59028e-15 19.7815 -3.00948 -8.30515 24 1.27222e-14 -1.43125e-14 20 0 -3.18055e-15 4.50658 -20.29 -57.2075 -10.6345 27.064 -99.2435 27.9526 5.17564 -9.45692 -20.699 -12.5741 -5.10105 -28.184 10.7294 -19.1592 1.29185e-14 0 10 -1.72697e-14 6.36111e-15 10 -3.18055e-15 -6.75868e-15 3.18055e-15 -19.9818 0.871897 -2.3964 -24 7.95139e-15 1.19271e-14 -20 1.27222e-14 3.43525e-15 -3.18055e-15 -6.75868e-15 3.18055e-15 -20 3.18055e-15 9.54166e-15 -24 -7.95139e-15 5.56597e-15 -20 -1.59028e-15 1.63097e-14 -3.18055e-15 -6.75868e-15 3.18055e-15 -19.9748 -1.02565 2.81938 -24 7.95139e-16 -1.78906e-15 -20 0 6.07371e-15 -3.18055e-15 -6.75868e-15 3.18055e-15 -19.7815 -3.00948 8.30515 -24 1.98785e-15 -4.87022e-15 -20 3.77691e-15 -1.79566e-15 
358.834 87.8121 212.835 15.4013 -0.071968 -117.989 9.51476 -41.0322 18.5066 -3.20161 4.60158 -3.57815 18.2798 19.5501 40.509 18.8223 -19.1593 14.9308 -17.764 34.9314 26.2161 -2.86289 -25.2677 1.82815 4.18344 7.75221 2.21139 1.0681 1.80857 0.708093 1.76201 2.89387 1.23607 -1.29576 -0.504314 1.72107 -2.87994 -3.1693 7.34035 -23.3644 -2.75716 29.8688 4.53155 -1.14415 4.20137 90.2464 -47.6499 51.7842 60.3666 4.35286 93.2401 15.9828 -22.4319 13.8778 28.184 10.7294 19.1592 1.47774e-14 5.96354e-15 -10 -1.3269e-14 -1.98785e-15 -10 3.97252e-31 -4.77083e-15 4.77083e-15 19.9818 0.871897 2.3964 24 4.77083e-15 -1.59028e-15 20 -1.27222e-14 -2.38542e-14 3.97252e-31 -4.77083e-15 4.77083e-15 20 7.95139e-15 1.19271e-14 24 4.77083e-15 -6.36111e-15 20 3.18055e-15 -1.98785e-14 3.97252e-31 -4.77083e-15 4.77083e-15 19.9748 -1.02565 -2.81938 24 -3.18055e-15 -1.39149e-14 20 7.95139e-15 -2.38542e-14 3.97252e-31 -4.77083e-15 4.77083e-15 19.7815 -3.00948 -8.30515 24 6.36111e-15 -7.95139e-16 20 -1.27222e-14 -7.95139e-15 4.44614 -20.4927 -57.5079 -9.76539 26.1262 -101.911 27.5067 4.77344 -7.77913 -20.785 -12.3047 -5.63873 -28.184 10.7294 -19.1592 5.3376e-15 6.36111e-15 10 -2.5837e-14 0 10 3.18055e-15 -6.36111e-15 1.59028e-15 -19.9818 0.871897 -2.3964 -24 1.59028e-15 9.54166e-15 -20 4.77083e-15 1.34335e-15 3.18055e-15 -6.36111e-15 1.59028e-15 -20 2.38542e-15 3.18055e-15 -24 -4.77083e-15 1.59028e-15 -20 -1.59028e-15 1.71949e-14 3.18055e-15 -6.36111e-15 1.59028e-15 -19.9748 -1.02565 2.81938 -24 -7.95139e-16 -1.19271e-14 -20 7.95139e-16 4.29872e-15 3.18055e-15 -6.36111e-15 1.59028e-15 -19.7815 -3.00948 8.30515 -24 -6.95746e-15 4.96962e-15 -20 9.93923e-16 1.11226e-14 
358.628 87.831 212.667 15.4237 0.0158858 -118.328 9.92201 -40.8086 18.8874 -3.27796 4.59754 -3.43273 18.4285 19.3604 40.4064 19.0912 -18.8639 15.1818 -17.8718 34.9573 26.2366 -2.94034 -25.3936 1.86099 4.24123 7.49285 1.85127 1.07959 1.76343 0.613045 1.78255 2.83398 1.07658 -1.29257 -0.507477 1.76122 -2.99036 -3.47793 8.11624 -23.1779 -2.32574 30.2288 4.66587 -1.12946 3.98905 89.9993 -48.3067 52.128 59.3749 4.49845 93.5348 15.9586 -22.1577 14.0922 28.184 10.7294 19.1592 1.85866e-14 4.67144e-15 -10 -1.58665e-14 -2.98177e-15 -10 -1.54487e-31 -1.59028e-15 -5.56597e-15 19.9818 0.871897 2.3964 24 1.11319e-14 -3.18055e-15 20 -9.54166e-15 -2.22639e-14 -1.54487e-31 -1.59028e-15 -5.56597e-15 20 1.59028e-15 9.54166e-15 24 3.18055e-15 -2.78299e-15 20 0 -8.74653e-15 -1.54487e-31 -1.59028e-15 -5.56597e-15 19.9748 -1.02565 -2.81938 24 0 -7.55382e-15 20 -3.18055e-15 -1.98785e-14 -1.54487e-31 -1.59028e-15 -5.56597e-15 19.7815 -3.00948 -8.30515 24 9.54166e-15 6.36111e-15 20 1.59028e-15 1.59028e-15 4.39462 -20.459 -57.4524 -9.80118 26.0651 -102.212 27.9488 4.42454 -8.68776 -20.8677 -12.015 -6.15259 -28.184 10.7294 -19.1592 -0 0 10 -9.12804e-15 -3.18055e-15 10 9.54166e-15 -7.15625e-15 -0 -19.9818 0.871897 -2.3964 -24 3.18055e-15 1.19271e-14 -20 3.18055e-15 1.25669e-14 9.54166e-15 -7.15625e-15 -0 -20 -6.36111e-15 9.54166e-15 -24 -1.59028e-14 1.66979e-14 -20 -3.18055e-15 2.21769e-14 9.54166e-15 -7.15625e-15 -0 -19.9748 -1.02565 2.81938 -24 -4.77083e-15 -1.07344e-14 -20 4.77083e-15 3.23025e-15 9.54166e-15 -7.15625e-15 -0 -19.7815 -3.00948 8.30515 -24 -6.36111e-15 5.36719e-15 -20 2.38542e-15 5.66536e-15 
